<svg width="492" height="707" viewBox="0 0 492 707" fill="none" xmlns="http://www.w3.org/2000/svg">
<path d="M108.996 286.759C124.374 257.294 129.959 240.292 121.113 207.277C115.075 184.743 157.546 182.023 195.489 210.498C219.947 228.853 228.572 204.643 224.1 144.523C219.627 84.4036 278.821 113.509 295.203 120.362C311.585 127.214 311.254 107.884 316.863 89.0075C322.472 70.1311 336.053 61.3079 372.786 78.246C402.033 91.732 478.943 89.5229 576.681 143.048C674.418 196.573 681.427 360.254 647.975 448.931C614.523 537.609 484.634 638.039 324.736 642.049C187.468 645.491 115.593 546.616 87.5216 474.424C59.4504 402.232 89.7735 323.591 108.996 286.759Z" stroke="#8999C3" stroke-width="2"/>
<path opacity="0.2" d="M205.234 437.158C204.117 410.965 201.227 397.149 182.164 378.085C169.152 365.073 197.092 346.465 234.24 350.952C258.186 353.845 254.53 333.905 227.765 294.602C200.999 255.298 252.913 251.835 266.806 250.054C280.699 248.274 272.849 235.201 269.236 220.094C265.623 204.988 271.421 193.604 303.193 190.688C328.49 188.365 380.156 156.524 468.03 154.54C555.904 152.557 625.246 261.603 637.368 335.371C649.49 409.14 600.372 528.97 492.727 594.77C400.317 651.258 312.224 612.064 264.577 573.821C216.93 535.577 206.629 469.899 205.234 437.158Z" stroke="#8999C3" stroke-width="2"/>
</svg>
