<svg width="112" height="75" viewBox="0 0 112 75" fill="none" xmlns="http://www.w3.org/2000/svg">
<path d="M2 68.9293C2 67.2725 3.34315 65.9293 5 65.9293H106.935C108.592 65.9293 109.935 67.2725 109.935 68.9293V70.125C109.935 71.7819 108.592 73.125 106.935 73.125H5C3.34315 73.125 2 71.7819 2 70.125V68.9293Z" stroke="#FCD561" stroke-width="3"/>
<path d="M7.88733 6.92932C7.88733 4.1679 10.1259 1.92932 12.8873 1.92932H98.6118C101.373 1.92932 103.612 4.1679 103.612 6.92932V65.9293H7.88733V6.92932Z" stroke="#FCD561" stroke-width="3"/>
<path fill-rule="evenodd" clip-rule="evenodd" d="M46.4161 28.9293C46.4161 28.377 46.8639 27.9293 47.4161 27.9293H64.0828C64.6351 27.9293 65.0828 28.377 65.0828 28.9293C65.0828 29.4816 64.6351 29.9293 64.0828 29.9293H47.4161C46.8639 29.9293 46.4161 29.4816 46.4161 28.9293ZM46.4161 33.9293C46.4161 33.377 46.8639 32.9293 47.4161 32.9293H55.7495C56.3018 32.9293 56.7495 33.377 56.7495 33.9293C56.7495 34.4816 56.3018 34.9293 55.7495 34.9293H47.4161C46.8639 34.9293 46.4161 34.4816 46.4161 33.9293ZM46.4161 38.9293C46.4161 38.377 46.8639 37.9293 47.4161 37.9293H60.7495C61.3018 37.9293 61.7495 38.377 61.7495 38.9293C61.7495 39.4816 61.3018 39.9293 60.7495 39.9293H47.4161C46.8639 39.9293 46.4161 39.4816 46.4161 38.9293Z" fill="#FCD561"/>
</svg>
