<svg width="87" height="59" viewBox="0 0 87 59" fill="none" xmlns="http://www.w3.org/2000/svg">
<path d="M1.61795 54.2206C1.61795 52.6856 2.86233 51.4412 4.39735 51.4412H82.2206C83.7556 51.4412 85 52.6856 85 54.2206V54.2206C85 55.7556 83.7556 57 82.2206 57H4.39735C2.86233 57 1.61795 55.7556 1.61795 54.2206V54.2206Z" stroke="#FCD561" stroke-width="3"/>
<path d="M6.16602 7C6.16602 4.23858 8.40459 2 11.166 2H75.1149C77.8764 2 80.1149 4.23858 80.1149 7V51.4412H6.16602V7Z" stroke="#FCD561" stroke-width="3"/>
<path fill-rule="evenodd" clip-rule="evenodd" d="M35.7028 22.858C35.7028 22.3057 36.1505 21.858 36.7028 21.858H49.5781C50.1304 21.858 50.5781 22.3057 50.5781 22.858C50.5781 23.4103 50.1304 23.858 49.5781 23.858H36.7028C36.1505 23.858 35.7028 23.4103 35.7028 22.858ZM35.7028 26.7206C35.7028 26.1683 36.1505 25.7206 36.7028 25.7206H43.1405C43.6928 25.7206 44.1405 26.1683 44.1405 26.7206C44.1405 27.2728 43.6928 27.7206 43.1405 27.7206H36.7028C36.1505 27.7206 35.7028 27.2728 35.7028 26.7206ZM35.7028 30.5832C35.7028 30.0309 36.1505 29.5832 36.7028 29.5832H47.0031C47.5554 29.5832 48.0031 30.0309 48.0031 30.5832C48.0031 31.1354 47.5554 31.5832 47.0031 31.5832H36.7028C36.1505 31.5832 35.7028 31.1354 35.7028 30.5832Z" fill="#FCD561"/>
</svg>
