<svg width="71" height="72" viewBox="0 0 71 72" fill="none" xmlns="http://www.w3.org/2000/svg">
<path fill-rule="evenodd" clip-rule="evenodd" d="M11.5 3.59082C6.80558 3.59082 3 7.3964 3 12.0908V19.4026C3 20.2311 2.32843 20.9026 1.5 20.9026C0.671573 20.9026 0 20.2311 0 19.4026V12.0908C0 5.73954 5.14873 0.59082 11.5 0.59082H18.8118C19.6403 0.59082 20.3118 1.26239 20.3118 2.09082C20.3118 2.91925 19.6403 3.59082 18.8118 3.59082H11.5ZM50.4301 2.09082C50.4301 1.26239 51.1017 0.59082 51.9301 0.59082H59.2419C65.5932 0.59082 70.7419 5.73955 70.7419 12.0908V19.4026C70.7419 20.2311 70.0704 20.9026 69.2419 20.9026C68.4135 20.9026 67.7419 20.2311 67.7419 19.4026V12.0908C67.7419 7.3964 63.9364 3.59082 59.2419 3.59082H51.9301C51.1017 3.59082 50.4301 2.91925 50.4301 2.09082ZM1.5 51.0209C2.32843 51.0209 3 51.6925 3 52.5209V59.8328C3 64.5272 6.80558 68.3328 11.5 68.3328H18.8118C19.6403 68.3328 20.3118 69.0043 20.3118 69.8328C20.3118 70.6612 19.6403 71.3328 18.8118 71.3328H11.5C5.14873 71.3328 0 66.184 0 59.8328V52.5209C0 51.6925 0.671573 51.0209 1.5 51.0209ZM69.2419 51.0209C70.0704 51.0209 70.7419 51.6925 70.7419 52.5209V59.8328C70.7419 66.184 65.5932 71.3328 59.2419 71.3328H51.9301C51.1017 71.3328 50.4301 70.6612 50.4301 69.8328C50.4301 69.0043 51.1017 68.3328 51.9301 68.3328H59.2419C63.9364 68.3328 67.7419 64.5272 67.7419 59.8328V52.5209C67.7419 51.6925 68.4135 51.0209 69.2419 51.0209Z" fill="#FCD561"/>
<path fill-rule="evenodd" clip-rule="evenodd" d="M46.1237 38.1124H41.8226V33.8113H37.5215V38.1124H33.2204V42.4135H37.5215V46.7145H33.2204H28.9193V42.4135V38.1124H24.6183H20.3172V33.8113V29.5102V25.2092V20.9081H24.6183H28.9193H33.2204H37.5215V25.2092V29.5102H41.8226V25.2092H46.1237V29.5102H50.4247V33.8113V38.1124V42.4135H46.1237V38.1124ZM24.6183 25.2092V29.5102V33.8113H28.9193H33.2204V29.5102V25.2092H28.9193H24.6183ZM46.1237 20.9081H50.4247V25.2092H46.1237V20.9081ZM37.5215 38.1124H41.8226V42.4135H37.5215V38.1124ZM20.3172 42.4135H24.6183V46.7145H20.3172V42.4135ZM24.6183 46.7145H28.9193V51.0156H24.6183V46.7145ZM46.1237 46.7145H50.4247V51.0156H46.1237V46.7145ZM37.5215 46.7145H41.8226V51.0156H37.5215V46.7145ZM26.7688 27.3597H31.0699V31.6608H26.7688V27.3597Z" fill="#FCD561"/>
</svg>
