<svg width="93" height="94" viewBox="0 0 93 94" fill="none" xmlns="http://www.w3.org/2000/svg">
<path fill-rule="evenodd" clip-rule="evenodd" d="M16.5 3.14941C9.04416 3.14941 3 9.19357 3 16.6494V24.6494C3 25.4778 2.32843 26.1494 1.5 26.1494C0.671573 26.1494 0 25.4778 0 24.6494V16.6494C0 7.53672 7.3873 0.149414 16.5 0.149414H24.5C25.3284 0.149414 26 0.820987 26 1.64941C26 2.47784 25.3284 3.14941 24.5 3.14941H16.5ZM67 1.64941C67 0.820987 67.6716 0.149414 68.5 0.149414H76.5C85.6127 0.149414 93 7.53672 93 16.6494V24.6494C93 25.4778 92.3284 26.1494 91.5 26.1494C90.6716 26.1494 90 25.4778 90 24.6494V16.6494C90 9.19357 83.9558 3.14941 76.5 3.14941H68.5C67.6716 3.14941 67 2.47784 67 1.64941ZM1.5 67.1494C2.32843 67.1494 3 67.821 3 68.6494V76.6494C3 84.1053 9.04416 90.1494 16.5 90.1494H24.5C25.3284 90.1494 26 90.821 26 91.6494C26 92.4778 25.3284 93.1494 24.5 93.1494H16.5C7.3873 93.1494 0 85.7621 0 76.6494V68.6494C0 67.821 0.671573 67.1494 1.5 67.1494ZM91.5 67.1494C92.3284 67.1494 93 67.821 93 68.6494V76.6494C93 85.7621 85.6127 93.1494 76.5 93.1494H68.5C67.6716 93.1494 67 92.4778 67 91.6494C67 90.821 67.6716 90.1494 68.5 90.1494H76.5C83.9558 90.1494 90 84.1053 90 76.6494V68.6494C90 67.821 90.6716 67.1494 91.5 67.1494Z" fill="#FCD561"/>
<path fill-rule="evenodd" clip-rule="evenodd" d="M60.7857 49.5066H55.0714V43.7923H49.3571V49.5066H43.6429V55.2208H49.3571V60.9351H43.6429H37.9286V55.2208V49.5066H32.2143H26.5V43.7923V38.078V32.3637V26.6494H32.2143H37.9286H43.6429H49.3571V32.3637V38.078H55.0714V32.3637H60.7857V38.078H66.5V43.7923V49.5066V55.2208H60.7857V49.5066ZM32.2143 32.3637V38.078V43.7923H37.9286H43.6429V38.078V32.3637H37.9286H32.2143ZM60.7857 26.6494H66.5V32.3637H60.7857V26.6494ZM49.3571 49.5066H55.0714V55.2208H49.3571V49.5066ZM26.5 55.2208H32.2143V60.9351H26.5V55.2208ZM32.2143 60.9351H37.9286V66.6494H32.2143V60.9351ZM60.7857 60.9351H66.5V66.6494H60.7857V60.9351ZM49.3571 60.9351H55.0714V66.6494H49.3571V60.9351ZM35.0714 35.2208H40.7857V40.9351H35.0714V35.2208Z" fill="#FCD561"/>
</svg>
