<svg width="63" height="74" viewBox="0 0 63 74" fill="none" xmlns="http://www.w3.org/2000/svg">
<path d="M2 68.7378C2 65.4241 4.68629 62.7378 8 62.7378H54.7786C58.0923 62.7378 60.7786 65.4241 60.7786 68.7378V71.9999H2V68.7378Z" stroke="#FCD561" stroke-width="3"/>
<path d="M6.80916 12C6.80916 6.47715 11.2863 2 16.8092 2H45.9695C51.4923 2 55.9695 6.47715 55.9695 12V62.7379H6.80916V12Z" stroke="#FCD561" stroke-width="3"/>
<path fill-rule="evenodd" clip-rule="evenodd" d="M39.2773 33.145H36.1221V29.9898H32.9669V33.145H29.8117V36.3002H32.9669V39.4555H29.8117H26.6565V36.3002V33.145H23.5013H20.3461V29.9898V26.8346V23.6794V20.5242H23.5013H26.6565H29.8117H32.9669V23.6794V26.8346H36.1221V23.6794H39.2773V26.8346H42.4326V29.9898V33.145V36.3002H39.2773V33.145ZM23.5013 23.6794V26.8346V29.9898H26.6565H29.8117V26.8346V23.6794H26.6565H23.5013ZM39.2773 20.5242H42.4326V23.6794H39.2773V20.5242ZM32.9669 33.145H36.1221V36.3002H32.9669V33.145ZM20.3461 36.3002H23.5013V39.4555H20.3461V36.3002ZM23.5013 39.4555H26.6565V42.6107H23.5013V39.4555ZM39.2773 39.4555H42.4326V42.6107H39.2773V39.4555ZM32.9669 39.4555H36.1221V42.6107H32.9669V39.4555ZM25.0789 25.257H28.2341V28.4122H25.0789V25.257Z" fill="#FCD561"/>
</svg>
