<svg width="86" height="102" viewBox="0 0 86 102" fill="none" xmlns="http://www.w3.org/2000/svg">
<path d="M1.75 92.75C1.75 89.4363 4.43629 86.75 7.75 86.75H78.25C81.5637 86.75 84.25 89.4363 84.25 92.75V99.75H1.75V92.75Z" stroke="#FCD561" stroke-width="3"/>
<path d="M8.5 16.5C8.5 8.21573 15.2157 1.5 23.5 1.5H62.5C70.7843 1.5 77.5 8.21573 77.5 16.5V86.75H8.5V16.5Z" stroke="#FCD561" stroke-width="3"/>
<path fill-rule="evenodd" clip-rule="evenodd" d="M54.0714 45.2143H49.6429V40.7857H45.2143V45.2143H40.7857V49.6429H45.2143V54.0714H40.7857H36.3571V49.6429V45.2143H31.9286H27.5V40.7857V36.3571V31.9286V27.5H31.9286H36.3571H40.7857H45.2143V31.9286V36.3571H49.6429V31.9286H54.0714V36.3571H58.5V40.7857V45.2143V49.6429H54.0714V45.2143ZM31.9286 31.9286V36.3571V40.7857H36.3571H40.7857V36.3571V31.9286H36.3571H31.9286ZM54.0714 27.5H58.5V31.9286H54.0714V27.5ZM45.2143 45.2143H49.6429V49.6429H45.2143V45.2143ZM27.5 49.6429H31.9286V54.0714H27.5V49.6429ZM31.9286 54.0714H36.3571V58.5H31.9286V54.0714ZM54.0714 54.0714H58.5V58.5H54.0714V54.0714ZM45.2143 54.0714H49.6429V58.5H45.2143V54.0714ZM34.1429 34.1429H38.5714V38.5714H34.1429V34.1429Z" fill="#FCD561"/>
</svg>
