<svg width="125" height="80" viewBox="0 0 125 80" fill="none" xmlns="http://www.w3.org/2000/svg">
<path d="M22.26 30.6C22.26 30.6267 22.24 30.94 22.2 31.54H14.32C14.48 32.1 14.7867 32.5333 15.24 32.84C15.7067 33.1333 16.2867 33.28 16.98 33.28C17.5 33.28 17.9467 33.2067 18.32 33.06C18.7067 32.9133 19.0933 32.6733 19.48 32.34L21.48 34.42C20.4267 35.5933 18.8867 36.18 16.86 36.18C15.5933 36.18 14.48 35.94 13.52 35.46C12.56 34.98 11.8133 34.3133 11.28 33.46C10.76 32.6067 10.5 31.64 10.5 30.56C10.5 29.4933 10.7533 28.54 11.26 27.7C11.78 26.8467 12.4933 26.18 13.4 25.7C14.3067 25.22 15.3267 24.98 16.46 24.98C17.54 24.98 18.52 25.2067 19.4 25.66C20.28 26.1 20.9733 26.7467 21.48 27.6C22 28.44 22.26 29.44 22.26 30.6ZM16.48 27.68C15.8933 27.68 15.4 27.8467 15 28.18C14.6133 28.5133 14.3667 28.9667 14.26 29.54H18.7C18.5933 28.9667 18.34 28.5133 17.94 28.18C17.5533 27.8467 17.0667 27.68 16.48 27.68ZM29.7083 36.18C28.5083 36.18 27.4349 35.94 26.4883 35.46C25.5416 34.98 24.8016 34.3133 24.2683 33.46C23.7483 32.6067 23.4883 31.64 23.4883 30.56C23.4883 29.48 23.7483 28.52 24.2683 27.68C24.8016 26.8267 25.5416 26.1667 26.4883 25.7C27.4349 25.22 28.5083 24.98 29.7083 24.98C30.9349 24.98 31.9949 25.2467 32.8883 25.78C33.7816 26.3 34.4149 27.0267 34.7883 27.96L31.8483 29.46C31.3549 28.4867 30.6349 28 29.6883 28C29.0083 28 28.4416 28.2267 27.9883 28.68C27.5483 29.1333 27.3283 29.76 27.3283 30.56C27.3283 31.3733 27.5483 32.0133 27.9883 32.48C28.4416 32.9333 29.0083 33.16 29.6883 33.16C30.6349 33.16 31.3549 32.6733 31.8483 31.7L34.7883 33.2C34.4149 34.1333 33.7816 34.8667 32.8883 35.4C31.9949 35.92 30.9349 36.18 29.7083 36.18ZM46.0967 28.18H42.6167V36H38.8367V28.18H35.3367V25.16H46.0967V28.18ZM53.9291 28.52C55.3691 28.5333 56.4691 28.8533 57.2291 29.48C57.9891 30.1067 58.3691 31 58.3691 32.16C58.3691 33.36 57.9291 34.3067 57.0491 35C56.1824 35.68 54.9824 36.0133 53.4491 36H47.5691V25.16H51.3491V28.52H53.9291ZM53.0691 33.4C54.0291 33.4 54.5091 32.9667 54.5091 32.1C54.5091 31.6733 54.3891 31.36 54.1491 31.16C53.9091 30.96 53.5491 30.8533 53.0691 30.84H51.3491V33.38L53.0691 33.4Z" fill="black"/>
<path fill-rule="evenodd" clip-rule="evenodd" d="M89.6438 6.91246C97.8149 5.78265 106.449 -2.10174 113.342 2.35098C120.15 6.74871 117.131 17.3502 118.1 25.2937C118.854 31.4813 119.549 37.4077 118.362 43.5294C117.008 50.5084 116.556 58.6477 110.797 62.9496C105.017 67.2663 96.8223 66.0587 89.6438 64.9789C83.3384 64.0303 78.0859 60.6235 72.7293 57.223C67.0226 53.6003 59.6684 50.9451 57.5512 44.6058C55.4331 38.2639 59.9476 31.9145 62.1702 25.607C64.3414 19.4454 64.8871 12.0104 70.3457 8.29605C75.7795 4.59859 83.0968 7.81771 89.6438 6.91246Z" fill="#FCD561"/>
<path d="M63.82 36.18C63.18 36.18 62.64 35.9667 62.2 35.54C61.76 35.1133 61.54 34.5733 61.54 33.92C61.54 33.2533 61.7533 32.7133 62.18 32.3C62.62 31.8867 63.1667 31.68 63.82 31.68C64.4867 31.68 65.0333 31.8867 65.46 32.3C65.8867 32.7133 66.1 33.2533 66.1 33.92C66.1 34.5733 65.88 35.1133 65.44 35.54C65.0133 35.9667 64.4733 36.18 63.82 36.18ZM79.1641 32.14H78.0441V36H74.3041V32.14H73.1641L71.2041 36H66.7041L69.9641 30.4L66.9441 25.16H70.9641L73.0841 29.16H74.3041V25.16H78.0441V29.16H79.2241L81.3641 25.16H85.3841L82.3441 30.4L85.6241 36H81.1241L79.1641 32.14ZM97.6155 30.6C97.6155 30.6267 97.5955 30.94 97.5555 31.54H89.6755C89.8355 32.1 90.1421 32.5333 90.5955 32.84C91.0621 33.1333 91.6421 33.28 92.3355 33.28C92.8555 33.28 93.3021 33.2067 93.6755 33.06C94.0621 32.9133 94.4488 32.6733 94.8355 32.34L96.8355 34.42C95.7821 35.5933 94.2421 36.18 92.2155 36.18C90.9488 36.18 89.8355 35.94 88.8755 35.46C87.9155 34.98 87.1688 34.3133 86.6355 33.46C86.1155 32.6067 85.8555 31.64 85.8555 30.56C85.8555 29.4933 86.1088 28.54 86.6155 27.7C87.1355 26.8467 87.8488 26.18 88.7555 25.7C89.6621 25.22 90.6821 24.98 91.8155 24.98C92.8955 24.98 93.8755 25.2067 94.7555 25.66C95.6355 26.1 96.3288 26.7467 96.8355 27.6C97.3555 28.44 97.6155 29.44 97.6155 30.6ZM91.8355 27.68C91.2488 27.68 90.7555 27.8467 90.3555 28.18C89.9688 28.5133 89.7221 28.9667 89.6155 29.54H94.0555C93.9488 28.9667 93.6955 28.5133 93.2955 28.18C92.9088 27.8467 92.4221 27.68 91.8355 27.68Z" fill="white"/>
<ellipse cx="99.5" cy="49.5" rx="7.5" ry="6.5" fill="white"/>
</svg>
