<svg width="13" height="11" viewBox="0 0 13 11" fill="none" xmlns="http://www.w3.org/2000/svg">
<path d="M0.859309 4.97623C4.2147 3.48353 6.4522 2.49953 7.5718 2.02413C10.7682 0.666607 11.4324 0.430797 11.8654 0.422927C11.9606 0.421297 12.1735 0.445387 12.3114 0.559647C12.4278 0.656117 12.4599 0.786427 12.4752 0.877927C12.4905 0.969327 12.5096 1.17773 12.4944 1.34053C12.3212 3.19883 11.5717 7.70833 11.1904 9.78963C11.0291 10.6703 10.7114 10.9656 10.4038 10.9945C9.7354 11.0573 9.2278 10.5435 8.5804 10.1102C7.5674 9.43223 6.9951 9.01013 6.0117 8.34853C4.8753 7.58393 5.612 7.16363 6.2597 6.47683C6.4291 6.29713 9.3742 3.56203 9.4312 3.31393C9.4383 3.28293 9.4449 3.16723 9.3776 3.10613C9.3103 3.04513 9.211 3.06593 9.1393 3.08263C9.0377 3.10613 7.4194 4.19833 4.2843 6.35903C3.8249 6.68113 3.4089 6.83803 3.0361 6.82983C2.6251 6.82073 1.83455 6.59253 1.24686 6.39753C0.526038 6.15823 -0.0468614 6.03173 0.00302865 5.62543C0.0290086 5.41383 0.314439 5.19743 0.859309 4.97623Z" fill="#333336"/>
</svg>
